<?xml version="1.0" encoding="UTF-8"?>
<svg id="Layer_2" data-name="Layer 2" xmlns="http://www.w3.org/2000/svg" viewBox="0 0 142.75 59.19">
  <defs>
    <style>
      .cls-1 {
        fill: #fff;
      }
    </style>
  </defs>
  <g id="Layer_1-2" data-name="Layer 1">
    <path class="cls-1" d="M132.63,58.18h10.12L119.47,0h-10.79l-19.74,49.34-2.51-3.6c.48-.88.89-1.83,1.21-2.86.59-1.88.89-3.89.89-6.03v-15.6h-8.09v15.6c0,.09,0,.18,0,.28L60.07,7.93h21.46V0h-32.12v7.34l10.02,14.41c-2.19.78-4.17,1.76-5.93,2.95-.54.37-1.06.76-1.55,1.16-.41-4.19-1.64-8.07-3.68-11.62-2.56-4.44-6.1-7.93-10.62-10.46-4.53-2.53-9.54-3.79-15.05-3.79H0v58.18h22.6c5.51,0,10.52-1.26,15.05-3.79,3.38-1.89,6.22-4.32,8.5-7.28.39,1.08.89,2.12,1.49,3.1,1.74,2.84,4.17,5.05,7.29,6.62,3.12,1.57,6.65,2.36,10.58,2.36,3.65,0,6.87-.75,9.65-2.23,2.15-1.15,3.93-2.77,5.36-4.84l4.21,6.06h10.54l5.06-13.07h27.24l5.06,13.07ZM40.05,39.5c-1.8,3.12-4.23,5.58-7.29,7.38-3.06,1.8-6.51,2.7-10.33,2.7h-13.32V8.6h13.32c3.82,0,7.26.9,10.33,2.7,3.06,1.8,5.49,4.26,7.29,7.38,1.8,3.12,2.7,6.59,2.7,10.41s-.9,7.29-2.7,10.41ZM73.14,49.28c-2.22,1.26-4.68,1.9-7.38,1.9-2.31,0-4.37-.48-6.2-1.43-1.83-.96-3.26-2.25-4.3-3.88-1.04-1.63-1.56-3.51-1.56-5.65,0-2.25.58-4.27,1.73-6.07,1.15-1.8,2.75-3.33,4.81-4.6,1.05-.65,2.21-1.2,3.46-1.65l12.94,18.62c-1.01,1.08-2.17,2-3.5,2.76ZM103.6,36.68l10.36-26.76,10.36,26.76h-20.71Z"/>
  </g>
</svg>